<svg version="1.1" xmlns="http://www.w3.org/2000/svg" xmlns:xlink="http://www.w3.org/1999/xlink" width="844" height="716"><defs/><g><g transform="translate(-182,2) scale(1,1)"><path fill="none" stroke="#000000" d="M 192 8 L 1016 8 L 1016 704 L 192 704 L 192 8" stroke-miterlimit="10"/></g><g transform="translate(-182,2) scale(1,1)"><path fill="#ffffff" stroke="none" d="M 192 8 L 192 30 L 344.58251953125 30 L 355.58251953125 19 L 355.58251953125 8 L 192 8"/></g><g transform="translate(-182,2) scale(1,1)"><path fill="none" stroke="#000000" d="M 192 8 L 192 30 L 344.58251953125 30 L 355.58251953125 19 L 355.58251953125 8 L 192 8 L 192 8" stroke-miterlimit="10"/></g><g transform="translate(-182,2) scale(1,1)"><g><path fill="none" stroke="none"/><text fill="#000000" stroke="none" font-family="Arial" font-size="13px" font-style="normal" font-weight="normal" text-decoration="none" x="262.97900390625" y="25.5">Interprétation</text></g></g><g transform="translate(-182,2) scale(1,1)"><g><path fill="none" stroke="none"/><text fill="#000000" stroke="none" font-family="Arial" font-size="13px" font-style="normal" font-weight="bold" text-decoration="none" x="197" y="25.5">interaction</text></g></g><g transform="translate(-182,2) scale(1,1)"><rect fill="#C0C0C0" stroke="none" x="487" y="47" width="139.63720703125" height="39" opacity="0.2"/></g><g transform="translate(-182,2) scale(1,1)"><rect fill="#ffffff" stroke="none" x="480" y="40" width="139.63720703125" height="39"/></g><g transform="translate(-182,2) scale(1,1)"><path fill="none" stroke="#000000" d="M 480 40 L 619.63720703125 40 L 619.63720703125 79 L 480 79 L 480 40 Z Z" stroke-miterlimit="10"/></g><g transform="translate(-182,2) scale(1,1)"><g><path fill="none" stroke="none"/><text fill="#000000" stroke="none" font-family="Arial" font-size="13px" font-style="normal" font-weight="bold" text-decoration="none" x="493.806884765625" y="59.5">Interface graphique</text></g></g><g transform="translate(-182,2) scale(1,1)"><path fill="none" stroke="#000000" d="M 550.5 80 L 550.5 696" stroke-miterlimit="10" stroke-dasharray="3"/></g><g transform="translate(-182,2) scale(1,1)"><path fill="#ffffff" stroke="none" d="M 289.6131454190341 47.3 C 289.6131454190341 43.82060576 292.4915471412159 41 296.042236328125 41 C 299.5929255150341 41 302.471327237216 43.82060576 302.471327237216 47.3 C 302.471327237216 50.779394239999995 299.5929255150341 53.6 296.042236328125 53.6 C 292.4915471412159 53.6 289.6131454190341 50.779394239999995 289.6131454190341 47.3 Z"/></g><g transform="translate(-182,2) scale(1,1)"><path fill="none" stroke="#000000" d="M 289.6131454190341 47.3 C 289.6131454190341 43.82060576 292.4915471412159 41 296.042236328125 41 C 299.5929255150341 41 302.471327237216 43.82060576 302.471327237216 47.3 C 302.471327237216 50.779394239999995 299.5929255150341 53.6 296.042236328125 53.6 C 292.4915471412159 53.6 289.6131454190341 50.779394239999995 289.6131454190341 47.3 Z" stroke-miterlimit="10"/></g><g transform="translate(-182,2) scale(1,1)"><path fill="none" stroke="#000000" d="M 296.042236328125 53.6 L 296.042236328125 66.4" stroke-miterlimit="10"/></g><g transform="translate(-182,2) scale(1,1)"><path fill="none" stroke="#000000" d="M 289.23496360085227 58.4 L 302.8495090553978 58.4" stroke-miterlimit="10"/></g><g transform="translate(-182,2) scale(1,1)"><path fill="none" stroke="#000000" d="M 296.042236328125 66.4 L 286.58769087357956 79" stroke-miterlimit="10"/></g><g transform="translate(-182,2) scale(1,1)"><path fill="none" stroke="#000000" d="M 296.042236328125 66.4 L 305.4967817826705 79" stroke-miterlimit="10"/></g><g transform="translate(-182,2) scale(1,1)"><g><path fill="none" stroke="none"/><text fill="#000000" stroke="none" font-family="Arial" font-size="13px" font-style="normal" font-weight="bold" text-decoration="none" x="267.14453125" y="99.5">Utilisateur</text></g></g><g transform="translate(-182,2) scale(1,1)"><path fill="none" stroke="#000000" d="M 297.5 105 L 297.5 696" stroke-miterlimit="10" stroke-dasharray="3"/></g><g transform="translate(-182,2) scale(1,1)"><rect fill="#C0C0C0" stroke="none" x="735" y="47" width="139.63720703125" height="39" opacity="0.2"/></g><g transform="translate(-182,2) scale(1,1)"><rect fill="#ffffff" stroke="none" x="728" y="40" width="139.63720703125" height="39"/></g><g transform="translate(-182,2) scale(1,1)"><path fill="none" stroke="#000000" d="M 728 40 L 867.63720703125 40 L 867.63720703125 79 L 728 79 L 728 40 Z Z" stroke-miterlimit="10"/></g><g transform="translate(-182,2) scale(1,1)"><g><path fill="none" stroke="none"/><text fill="#000000" stroke="none" font-family="Arial" font-size="13px" font-style="normal" font-weight="bold" text-decoration="none" x="764.21728515625" y="59.5">Interpréteur</text></g></g><g transform="translate(-182,2) scale(1,1)"><path fill="none" stroke="#000000" d="M 798.5 80 L 798.5 696" stroke-miterlimit="10" stroke-dasharray="3"/></g><g transform="translate(-182,2) scale(1,1)"><path fill="none" stroke="#000000" d="M 264 160 L 911 160 L 911 295 L 264 295 L 264 160" stroke-miterlimit="10"/></g><g transform="translate(-182,2) scale(1,1)"><path fill="#ffffff" stroke="none" d="M 264 160 L 264 182 L 326.26171875 182 L 337.26171875 171 L 337.26171875 160 L 264 160"/></g><g transform="translate(-182,2) scale(1,1)"><path fill="none" stroke="#000000" d="M 264 160 L 264 182 L 326.26171875 182 L 337.26171875 171 L 337.26171875 160 L 264 160 L 264 160" stroke-miterlimit="10"/></g><g transform="translate(-182,2) scale(1,1)"><g><path fill="none" stroke="none"/><text fill="#000000" stroke="none" font-family="Arial" font-size="13px" font-style="normal" font-weight="normal" text-decoration="none" x="293.07177734375" y="177.5">input</text></g></g><g transform="translate(-182,2) scale(1,1)"><g><path fill="none" stroke="none"/><text fill="#000000" stroke="none" font-family="Arial" font-size="13px" font-style="normal" font-weight="bold" text-decoration="none" x="269" y="177.5">opt</text></g></g><g transform="translate(-182,2) scale(1,1)"><path fill="none" stroke="#000000" d="M 272 592 L 911 592 L 911 688 L 272 688 L 272 592" stroke-miterlimit="10"/></g><g transform="translate(-182,2) scale(1,1)"><path fill="#ffffff" stroke="none" d="M 272 592 L 272 614 L 376.1689453125 614 L 387.1689453125 603 L 387.1689453125 592 L 272 592"/></g><g transform="translate(-182,2) scale(1,1)"><path fill="none" stroke="#000000" d="M 272 592 L 272 614 L 376.1689453125 614 L 387.1689453125 603 L 387.1689453125 592 L 272 592 L 272 592" stroke-miterlimit="10"/></g><g transform="translate(-182,2) scale(1,1)"><g><path fill="none" stroke="none"/><text fill="#000000" stroke="none" font-family="Arial" font-size="13px" font-style="normal" font-weight="normal" text-decoration="none" x="301.07177734375" y="609.5">Java Output</text></g></g><g transform="translate(-182,2) scale(1,1)"><g><path fill="none" stroke="none"/><text fill="#000000" stroke="none" font-family="Arial" font-size="13px" font-style="normal" font-weight="bold" text-decoration="none" x="277" y="609.5">opt</text></g></g><g transform="translate(-182,2) scale(1,1)"><path fill="none" stroke="#000000" d="M 798 416 L 828 416 L 828 436 L 804 436" stroke-miterlimit="10"/></g><g transform="translate(-182,2) scale(1,1)"><path fill="#000000" stroke="none" d="M 814.1626748576241 431.790482243984 L 804 436 L 814.1626748576241 440.209517756016"/></g><g transform="translate(-182,2) scale(1,1)"><path fill="none" stroke="#000000" d="M 814.1626748576241 431.790482243984 L 804 436 L 814.1626748576241 440.209517756016 L 814.1626748576241 431.790482243984" stroke-miterlimit="10"/></g><g transform="translate(-182,2) scale(1,1)"><g><path fill="none" stroke="none"/><text fill="#000000" stroke="none" font-family="Arial" font-size="13px" font-style="normal" font-weight="normal" text-decoration="none" x="831.5" y="431.5">5 : Interpéter_code</text></g></g><g transform="translate(-182,2) scale(1,1)"><rect fill="#ffffff" stroke="none" x="791" y="436" width="13" height="28"/></g><g transform="translate(-182,2) scale(1,1)"><path fill="none" stroke="#000000" d="M 791 436 L 804 436 L 804 464 L 791 464 L 791 436 Z Z" stroke-miterlimit="10"/></g><g transform="translate(-182,2) scale(1,1)"><path fill="none" stroke="#000000" d="M 556 368 L 791 368" stroke-miterlimit="10"/></g><g transform="translate(-182,2) scale(1,1)"><path fill="#000000" stroke="none" d="M 780.8373251423759 372.209517756016 L 791 368 L 780.8373251423758 363.790482243984"/></g><g transform="translate(-182,2) scale(1,1)"><path fill="none" stroke="#000000" d="M 780.8373251423759 372.209517756016 L 791 368 L 780.8373251423758 363.790482243984 L 780.8373251423759 372.209517756016" stroke-miterlimit="10"/></g><g transform="translate(-182,2) scale(1,1)"><g><path fill="none" stroke="none"/><text fill="#000000" stroke="none" font-family="Arial" font-size="13px" font-style="normal" font-weight="normal" text-decoration="none" x="610.5" y="364.5">4 : Envoyer(données)</text></g></g><g transform="translate(-182,2) scale(1,1)"><rect fill="#ffffff" stroke="none" x="791" y="368" width="13" height="28"/></g><g transform="translate(-182,2) scale(1,1)"><path fill="none" stroke="#000000" d="M 791 368 L 804 368 L 804 396 L 791 396 L 791 368 Z Z" stroke-miterlimit="10"/></g><g transform="translate(-182,2) scale(1,1)"><path fill="none" stroke="#000000" d="M 297 360 L 543 360" stroke-miterlimit="10"/></g><g transform="translate(-182,2) scale(1,1)"><path fill="#000000" stroke="none" d="M 532.8373251423759 364.209517756016 L 543 360 L 532.8373251423758 355.790482243984"/></g><g transform="translate(-182,2) scale(1,1)"><path fill="none" stroke="#000000" d="M 532.8373251423759 364.209517756016 L 543 360 L 532.8373251423758 355.790482243984 L 532.8373251423759 364.209517756016" stroke-miterlimit="10"/></g><g transform="translate(-182,2) scale(1,1)"><g><path fill="none" stroke="none"/><text fill="#000000" stroke="none" font-family="Arial" font-size="13px" font-style="normal" font-weight="normal" text-decoration="none" x="334.5" y="352.5">3 : Joindre(données à traiter)</text></g></g><g transform="translate(-182,2) scale(1,1)"><rect fill="#ffffff" stroke="none" x="543" y="360" width="13" height="112"/></g><g transform="translate(-182,2) scale(1,1)"><path fill="none" stroke="#000000" d="M 543 360 L 556 360 L 556 472 L 543 472 L 543 360 Z Z" stroke-miterlimit="10"/></g><g transform="translate(-182,2) scale(1,1)"><path fill="none" stroke="#000000" d="M 297 240 L 543 240" stroke-miterlimit="10"/></g><g transform="translate(-182,2) scale(1,1)"><path fill="#000000" stroke="none" d="M 532.8373251423759 244.209517756016 L 543 240 L 532.8373251423758 235.790482243984"/></g><g transform="translate(-182,2) scale(1,1)"><path fill="none" stroke="#000000" d="M 532.8373251423759 244.209517756016 L 543 240 L 532.8373251423758 235.790482243984 L 532.8373251423759 244.209517756016" stroke-miterlimit="10"/></g><g transform="translate(-182,2) scale(1,1)"><g><path fill="none" stroke="none"/><text fill="#000000" stroke="none" font-family="Arial" font-size="13px" font-style="normal" font-weight="normal" text-decoration="none" x="353.5" y="236.5">2 : Ajouter(paramètres)</text></g></g><g transform="translate(-182,2) scale(1,1)"><rect fill="#ffffff" stroke="none" x="543" y="240" width="13" height="28"/></g><g transform="translate(-182,2) scale(1,1)"><path fill="none" stroke="#000000" d="M 543 240 L 556 240 L 556 268 L 543 268 L 543 240 Z Z" stroke-miterlimit="10"/></g><g transform="translate(-182,2) scale(1,1)"><path fill="none" stroke="#000000" d="M 297 200 L 543 200" stroke-miterlimit="10"/></g><g transform="translate(-182,2) scale(1,1)"><path fill="#000000" stroke="none" d="M 532.8373251423759 204.209517756016 L 543 200 L 532.8373251423758 195.790482243984"/></g><g transform="translate(-182,2) scale(1,1)"><path fill="none" stroke="#000000" d="M 532.8373251423759 204.209517756016 L 543 200 L 532.8373251423758 195.790482243984 L 532.8373251423759 204.209517756016" stroke-miterlimit="10"/></g><g transform="translate(-182,2) scale(1,1)"><g><path fill="none" stroke="none"/><text fill="#000000" stroke="none" font-family="Arial" font-size="13px" font-style="normal" font-weight="normal" text-decoration="none" x="339.5" y="196.5">1 : Saisir(code MapReduce)</text></g></g><g transform="translate(-182,2) scale(1,1)"><rect fill="#ffffff" stroke="none" x="543" y="200" width="13" height="32"/></g><g transform="translate(-182,2) scale(1,1)"><path fill="none" stroke="#000000" d="M 543 200 L 556 200 L 556 232 L 543 232 L 543 200 Z Z" stroke-miterlimit="10"/></g><g transform="translate(-182,2) scale(1,1)"><path fill="none" stroke="#000000" d="M 543 464 L 297 464" stroke-miterlimit="10" stroke-dasharray="3"/></g><g transform="translate(-182,2) scale(1,1)"><path fill="none" stroke="#000000" d="M 307.16267485762415 459.790482243984 L 297 464 L 307.16267485762415 468.209517756016" stroke-miterlimit="10"/></g><g transform="translate(-182,2) scale(1,1)"><g><path fill="none" stroke="none"/><text fill="#000000" stroke="none" font-family="Arial" font-size="13px" font-style="normal" font-weight="normal" text-decoration="none" x="352.5" y="480.5">7 : Affichage graphique</text></g></g><g transform="translate(-182,2) scale(1,1)"><path fill="none" stroke="#000000" d="M 791 448 L 556 448" stroke-miterlimit="10" stroke-dasharray="3"/></g><g transform="translate(-182,2) scale(1,1)"><path fill="none" stroke="#000000" d="M 566.1626748576241 443.790482243984 L 556 448 L 566.1626748576241 452.209517756016" stroke-miterlimit="10"/></g><g transform="translate(-182,2) scale(1,1)"><g><path fill="none" stroke="none"/><text fill="#000000" stroke="none" font-family="Arial" font-size="13px" font-style="normal" font-weight="normal" text-decoration="none" x="639.5" y="464.5">6 : Résultat</text></g></g><g transform="translate(-182,2) scale(1,1)"><path fill="none" stroke="#000000" d="M 297 508 L 543 508" stroke-miterlimit="10"/></g><g transform="translate(-182,2) scale(1,1)"><path fill="#000000" stroke="none" d="M 532.8373251423759 512.209517756016 L 543 508 L 532.8373251423758 503.790482243984"/></g><g transform="translate(-182,2) scale(1,1)"><path fill="none" stroke="#000000" d="M 532.8373251423759 512.209517756016 L 543 508 L 532.8373251423758 503.790482243984 L 532.8373251423759 512.209517756016" stroke-miterlimit="10"/></g><g transform="translate(-182,2) scale(1,1)"><g><path fill="none" stroke="none"/><text fill="#000000" stroke="none" font-family="Arial" font-size="13px" font-style="normal" font-weight="normal" text-decoration="none" x="333.5" y="504.5">8 : Consulter(détails machine)</text></g></g><g transform="translate(-182,2) scale(1,1)"><rect fill="#ffffff" stroke="none" x="543" y="508" width="13" height="36"/></g><g transform="translate(-182,2) scale(1,1)"><path fill="none" stroke="#000000" d="M 543 508 L 556 508 L 556 544 L 543 544 L 543 508 Z Z" stroke-miterlimit="10"/></g><g transform="translate(-182,2) scale(1,1)"><path fill="none" stroke="#000000" d="M 297 552 L 543 552" stroke-miterlimit="10"/></g><g transform="translate(-182,2) scale(1,1)"><path fill="#000000" stroke="none" d="M 532.8373251423759 556.209517756016 L 543 552 L 532.8373251423758 547.790482243984"/></g><g transform="translate(-182,2) scale(1,1)"><path fill="none" stroke="#000000" d="M 532.8373251423759 556.209517756016 L 543 552 L 532.8373251423758 547.790482243984 L 532.8373251423759 556.209517756016" stroke-miterlimit="10"/></g><g transform="translate(-182,2) scale(1,1)"><g><path fill="none" stroke="none"/><text fill="#000000" stroke="none" font-family="Arial" font-size="13px" font-style="normal" font-weight="normal" text-decoration="none" x="369.114990234375" y="548.5">9 : Exporter(CSV)</text></g></g><g transform="translate(-182,2) scale(1,1)"><rect fill="#ffffff" stroke="none" x="543" y="552" width="13" height="28"/></g><g transform="translate(-182,2) scale(1,1)"><path fill="none" stroke="#000000" d="M 543 552 L 556 552 L 556 580 L 543 580 L 543 552 Z Z" stroke-miterlimit="10"/></g><g transform="translate(-182,2) scale(1,1)"><path fill="none" stroke="#000000" d="M 543 568 L 297 568" stroke-miterlimit="10" stroke-dasharray="3"/></g><g transform="translate(-182,2) scale(1,1)"><path fill="none" stroke="#000000" d="M 307.16267485762415 563.790482243984 L 297 568 L 307.16267485762415 572.209517756016" stroke-miterlimit="10"/></g><g transform="translate(-182,2) scale(1,1)"><g><path fill="none" stroke="none"/><text fill="#000000" stroke="none" font-family="Arial" font-size="13px" font-style="normal" font-weight="normal" text-decoration="none" x="396.483154296875" y="584.5">10 : OK</text></g></g><g transform="translate(-182,2) scale(1,1)"><path fill="none" stroke="#000000" d="M 297 640 L 543 640" stroke-miterlimit="10"/></g><g transform="translate(-182,2) scale(1,1)"><path fill="#000000" stroke="none" d="M 532.8373251423759 644.209517756016 L 543 640 L 532.8373251423758 635.790482243984"/></g><g transform="translate(-182,2) scale(1,1)"><path fill="none" stroke="#000000" d="M 532.8373251423759 644.209517756016 L 543 640 L 532.8373251423758 635.790482243984 L 532.8373251423759 644.209517756016" stroke-miterlimit="10"/></g><g transform="translate(-182,2) scale(1,1)"><g><path fill="none" stroke="none"/><text fill="#000000" stroke="none" font-family="Arial" font-size="13px" font-style="normal" font-weight="normal" text-decoration="none" x="348.5" y="636.5">11 : Exporter(code Java)</text></g></g><g transform="translate(-182,2) scale(1,1)"><rect fill="#ffffff" stroke="none" x="543" y="640" width="13" height="28"/></g><g transform="translate(-182,2) scale(1,1)"><path fill="none" stroke="#000000" d="M 543 640 L 556 640 L 556 668 L 543 668 L 543 640 Z Z" stroke-miterlimit="10"/></g><g transform="translate(-182,2) scale(1,1)"><path fill="none" stroke="#000000" d="M 543 660 L 297 660" stroke-miterlimit="10" stroke-dasharray="3"/></g><g transform="translate(-182,2) scale(1,1)"><path fill="none" stroke="#000000" d="M 307.16267485762415 655.790482243984 L 297 660 L 307.16267485762415 664.209517756016" stroke-miterlimit="10"/></g><g transform="translate(-182,2) scale(1,1)"><g><path fill="none" stroke="none"/><text fill="#000000" stroke="none" font-family="Arial" font-size="13px" font-style="normal" font-weight="normal" text-decoration="none" x="397.09814453125" y="676.5">12 : OK</text></g></g></g></svg>