<svg version="1.1" xmlns="http://www.w3.org/2000/svg" xmlns:xlink="http://www.w3.org/1999/xlink" width="940" height="390"><defs/><g><g transform="translate(-246,-118) scale(1,1)"><path fill="#ffffff" stroke="none" d="M 283.60661594460225 273.68 C 283.60661594460225 268.886167936 287.49245826954774 265 292.285888671875 265 C 297.07931907420226 265 300.96516139914775 268.886167936 300.96516139914775 273.68 C 300.96516139914775 278.473832064 297.07931907420226 282.36 292.285888671875 282.36 C 287.49245826954774 282.36 283.60661594460225 278.473832064 283.60661594460225 273.68 Z"/></g><g transform="translate(-246,-118) scale(1,1)"><path fill="none" stroke="#000000" d="M 283.60661594460225 273.68 C 283.60661594460225 268.886167936 287.49245826954774 265 292.285888671875 265 C 297.07931907420226 265 300.96516139914775 268.886167936 300.96516139914775 273.68 C 300.96516139914775 278.473832064 297.07931907420226 282.36 292.285888671875 282.36 C 287.49245826954774 282.36 283.60661594460225 278.473832064 283.60661594460225 273.68 Z" stroke-miterlimit="10"/></g><g transform="translate(-246,-118) scale(1,1)"><path fill="none" stroke="#000000" d="M 292.285888671875 282.36 L 292.285888671875 299.64" stroke-miterlimit="10"/></g><g transform="translate(-246,-118) scale(1,1)"><path fill="none" stroke="#000000" d="M 283.09607049005683 288.84 L 301.47570685369317 288.84" stroke-miterlimit="10"/></g><g transform="translate(-246,-118) scale(1,1)"><path fill="none" stroke="#000000" d="M 292.285888671875 299.64 L 279.52225230823865 317" stroke-miterlimit="10"/></g><g transform="translate(-246,-118) scale(1,1)"><path fill="none" stroke="#000000" d="M 292.285888671875 299.64 L 305.04952503551135 317" stroke-miterlimit="10"/></g><g transform="translate(-246,-118) scale(1,1)"><g><path fill="none" stroke="none"/><text fill="#000000" stroke="none" font-family="Arial" font-size="13px" font-style="normal" font-weight="bold" text-decoration="none" x="263.38818359375" y="337.5">Utilisateur</text></g></g><g transform="translate(-246,-118) scale(1,1)"><path fill="#C0C0C0" stroke="none" d="M 531 236 C 531 226.6111584 600.1719984 219 685.5 219 C 770.8280016 219 840 226.6111584 840 236 C 840 245.3888416 770.8280016 253 685.5 253 C 600.1719984 253 531 245.3888416 531 236 Z" opacity="0.2"/></g><g transform="translate(-246,-118) scale(1,1)"><path fill="#ffffff" stroke="none" d="M 524 229 C 524 219.6111584 593.1719984 212 678.5 212 C 763.8280016 212 833 219.6111584 833 229 C 833 238.3888416 763.8280016 246 678.5 246 C 593.1719984 246 524 238.3888416 524 229 Z"/></g><g transform="translate(-246,-118) scale(1,1)"><path fill="none" stroke="#000000" d="M 524 229 C 524 219.6111584 593.1719984 212 678.5 212 C 763.8280016 212 833 219.6111584 833 229 C 833 238.3888416 763.8280016 246 678.5 246 C 593.1719984 246 524 238.3888416 524 229 Z" stroke-miterlimit="10"/></g><g transform="translate(-246,-118) scale(1,1)"><g><path fill="none" stroke="none"/><text fill="#000000" stroke="none" font-family="Arial" font-size="13px" font-style="normal" font-weight="bold" text-decoration="none" x="579.8701171875" y="236">Entrer un programme MapReduce</text></g></g><g transform="translate(-246,-118) scale(1,1)"><path fill="#C0C0C0" stroke="none" d="M 543 152 C 543 142.6111584 604.3369824 135 680 135 C 755.6630176 135 817 142.6111584 817 152 C 817 161.3888416 755.6630176 169 680 169 C 604.3369824 169 543 161.3888416 543 152 Z" opacity="0.2"/></g><g transform="translate(-246,-118) scale(1,1)"><path fill="#ffffff" stroke="none" d="M 536 145 C 536 135.6111584 597.3369824 128 673 128 C 748.6630176 128 810 135.6111584 810 145 C 810 154.3888416 748.6630176 162 673 162 C 597.3369824 162 536 154.3888416 536 145 Z"/></g><g transform="translate(-246,-118) scale(1,1)"><path fill="none" stroke="#000000" d="M 536 145 C 536 135.6111584 597.3369824 128 673 128 C 748.6630176 128 810 135.6111584 810 145 C 810 154.3888416 748.6630176 162 673 162 C 597.3369824 162 536 154.3888416 536 145 Z" stroke-miterlimit="10"/></g><g transform="translate(-246,-118) scale(1,1)"><g><path fill="none" stroke="none"/><text fill="#000000" stroke="none" font-family="Arial" font-size="13px" font-style="normal" font-weight="bold" text-decoration="none" x="587.71923828125" y="152">Joindre un fichier de données</text></g></g><g transform="translate(-246,-118) scale(1,1)"><path fill="#C0C0C0" stroke="none" d="M 927 232 C 927 222.6111584 984.3075456 215 1055 215 C 1125.6924544 215 1183 222.6111584 1183 232 C 1183 241.3888416 1125.6924544 249 1055 249 C 984.3075456 249 927 241.3888416 927 232 Z" opacity="0.2"/></g><g transform="translate(-246,-118) scale(1,1)"><path fill="#ffffff" stroke="none" d="M 920 225 C 920 215.6111584 977.3075456 208 1048 208 C 1118.6924544 208 1176 215.6111584 1176 225 C 1176 234.3888416 1118.6924544 242 1048 242 C 977.3075456 242 920 234.3888416 920 225 Z"/></g><g transform="translate(-246,-118) scale(1,1)"><path fill="none" stroke="#000000" d="M 920 225 C 920 215.6111584 977.3075456 208 1048 208 C 1118.6924544 208 1176 215.6111584 1176 225 C 1176 234.3888416 1118.6924544 242 1048 242 C 977.3075456 242 920 234.3888416 920 225 Z" stroke-miterlimit="10"/></g><g transform="translate(-246,-118) scale(1,1)"><g><path fill="none" stroke="none"/><text fill="#000000" stroke="none" font-family="Arial" font-size="13px" font-style="normal" font-weight="bold" text-decoration="none" x="968.5146484375" y="232">Modifier les parties du code</text></g></g><g transform="translate(-246,-118) scale(1,1)"><path fill="none" stroke="#000000" d="M 919 226 L 834 227" stroke-miterlimit="10" stroke-dasharray="3"/></g><g transform="translate(-246,-118) scale(1,1)"><path fill="none" stroke="#000000" d="M 844.112451319911 222.6712209224274 L 834 227 L 844.2114919427379 231.0896738627179" stroke-miterlimit="10"/></g><g transform="translate(-246,-118) scale(1,1)"><g><path fill="none" stroke="none"/><text fill="#000000" stroke="none" font-family="Arial" font-size="13px" font-style="normal" font-weight="normal" text-decoration="none" x="848.5" y="217.5">«extend»</text></g></g><g transform="translate(-246,-118) scale(1,1)"><path fill="#C0C0C0" stroke="none" d="M 567 404 C 567 394.6111584 620.725824 387 687 387 C 753.274176 387 807 394.6111584 807 404 C 807 413.3888416 753.274176 421 687 421 C 620.725824 421 567 413.3888416 567 404 Z" opacity="0.2"/></g><g transform="translate(-246,-118) scale(1,1)"><path fill="#ffffff" stroke="none" d="M 560 397 C 560 387.6111584 613.725824 380 680 380 C 746.274176 380 800 387.6111584 800 397 C 800 406.3888416 746.274176 414 680 414 C 613.725824 414 560 406.3888416 560 397 Z"/></g><g transform="translate(-246,-118) scale(1,1)"><path fill="none" stroke="#000000" d="M 560 397 C 560 387.6111584 613.725824 380 680 380 C 746.274176 380 800 387.6111584 800 397 C 800 406.3888416 746.274176 414 680 414 C 613.725824 414 560 406.3888416 560 397 Z" stroke-miterlimit="10"/></g><g transform="translate(-246,-118) scale(1,1)"><g><path fill="none" stroke="none"/><text fill="#000000" stroke="none" font-family="Arial" font-size="13px" font-style="normal" font-weight="bold" text-decoration="none" x="621.83642578125" y="404">Configurer le cluster</text></g></g><g transform="translate(-246,-118) scale(1,1)"><path fill="#C0C0C0" stroke="none" d="M 519 488 C 519 478.6111584 591.9775776 471 682 471 C 772.0224224 471 845 478.6111584 845 488 C 845 497.3888416 772.0224224 505 682 505 C 591.9775776 505 519 497.3888416 519 488 Z" opacity="0.2"/></g><g transform="translate(-246,-118) scale(1,1)"><path fill="#ffffff" stroke="none" d="M 512 481 C 512 471.6111584 584.9775776 464 675 464 C 765.0224224 464 838 471.6111584 838 481 C 838 490.3888416 765.0224224 498 675 498 C 584.9775776 498 512 490.3888416 512 481 Z"/></g><g transform="translate(-246,-118) scale(1,1)"><path fill="none" stroke="#000000" d="M 512 481 C 512 471.6111584 584.9775776 464 675 464 C 765.0224224 464 838 471.6111584 838 481 C 838 490.3888416 765.0224224 498 675 498 C 584.9775776 498 512 490.3888416 512 481 Z" stroke-miterlimit="10"/></g><g transform="translate(-246,-118) scale(1,1)"><g><path fill="none" stroke="none"/><text fill="#000000" stroke="none" font-family="Arial" font-size="13px" font-style="normal" font-weight="bold" text-decoration="none" x="572.590087890625" y="488">Consulter les détails d'une machine</text></g></g><g transform="translate(-246,-118) scale(1,1)"><path fill="#C0C0C0" stroke="none" d="M 487 320 C 487 310.6111584 576.0953248 303 686 303 C 795.9046752 303 885 310.6111584 885 320 C 885 329.3888416 795.9046752 337 686 337 C 576.0953248 337 487 329.3888416 487 320 Z" opacity="0.2"/></g><g transform="translate(-246,-118) scale(1,1)"><path fill="#ffffff" stroke="none" d="M 480 313 C 480 303.6111584 569.0953248 296 679 296 C 788.9046752 296 878 303.6111584 878 313 C 878 322.3888416 788.9046752 330 679 330 C 569.0953248 330 480 322.3888416 480 313 Z"/></g><g transform="translate(-246,-118) scale(1,1)"><path fill="none" stroke="#000000" d="M 480 313 C 480 303.6111584 569.0953248 296 679 296 C 788.9046752 296 878 303.6111584 878 313 C 878 322.3888416 788.9046752 330 679 330 C 569.0953248 330 480 322.3888416 480 313 Z" stroke-miterlimit="10"/></g><g transform="translate(-246,-118) scale(1,1)"><g><path fill="none" stroke="none"/><text fill="#000000" stroke="none" font-family="Arial" font-size="13px" font-style="normal" font-weight="bold" text-decoration="none" x="549.65380859375" y="320">Générer un programme MapReduce en Java</text></g></g><g transform="translate(-246,-118) scale(1,1)"><path fill="none" stroke="#000000" d="M 330 287 L 630 163" stroke-miterlimit="10"/></g><g transform="translate(-246,-118) scale(1,1)"><path fill="none" stroke="#000000" d="M 330 296 L 584 247" stroke-miterlimit="10"/></g><g transform="translate(-246,-118) scale(1,1)"><path fill="none" stroke="#000000" d="M 330 312 L 606 379" stroke-miterlimit="10"/></g><g transform="translate(-246,-118) scale(1,1)"><path fill="none" stroke="#000000" d="M 330 304 L 479 308" stroke-miterlimit="10"/></g><g transform="translate(-246,-118) scale(1,1)"><path fill="none" stroke="#000000" d="M 330 320 L 636 463" stroke-miterlimit="10"/></g></g></svg>